# xmcd
#
# Track frame offsets: 
#        187
#        19142
#        36862
#        55605
#        75202
#        95620
#        111592
#        136997
#        157212
#        175735
#
# Disc length: 2638 seconds
#
# Revision: 5
# Processed by: cddbd v1.5.2PL0 Copyright (c) Steve Scherf et al.
# Submitted via: ExactAudioCopy v1.3
#
DISCID=7b0a4c0a
DTITLE=トーマス．ハーデン．トリオ - ＪＡＺＺで聴く　メンデルスゾーン＆ドヴォルザーク
DYEAR=2005
DGENRE=Jazz
TTITLE0=メンデルスゾーン：ヴァイオリン協奏曲ホ短調第１楽章
TTITLE1=メンデルスゾーン：歌の翼に
TTITLE2=メンデルスゾーン：結婚行進曲 (真夏の夜の夢より)
TTITLE3=メンデルスゾーン：無言歌集第５巻第６曲『春の歌』
TTITLE4=メンデルスゾーン：序曲『フィンガルの洞窟』
TTITLE5=ドヴォルザーク：ユーモレスク
TTITLE6=ドヴォルザーク：ドヴォルザーク：交響曲９番『新世界より』
TTITLE7=ドヴォルザーク：スラヴ舞曲集第１集第２曲
TTITLE8=ドヴォルザーク：優雅なワルツ
TTITLE9=ドヴォルザーク：ジプシーの歌第４曲『わが母の教えたまいし歌』
EXTD=
EXTT0=
EXTT1=
EXTT2=
EXTT3=
EXTT4=
EXTT5=
EXTT6=
EXTT7=
EXTT8=
EXTT9=
PLAYORDER=
